<svg width="20" xmlns="http://www.w3.org/2000/svg" height="20" id="screenshot-71e1bcd0-75f7-80e4-8005-4a94ca97daf7" viewBox="0 0 20 20" xmlns:xlink="http://www.w3.org/1999/xlink" fill="none" version="1.1"><g id="shape-71e1bcd0-75f7-80e4-8005-4a94ca97daf7" data-testid="all-inboxes-icon"><g fill="none"><g class="fills" id="fills-71e1bcd0-75f7-80e4-8005-4a94ca97daf7"><rect rx="0" ry="0" x="0" y="0" width="20" height="20" transform="matrix(1.000000, 0.000000, 0.000000, 1.000000, 0.000000, 0.000000)" class="frame-background"/></g><g class="frame-children"><g id="shape-71e1bcd0-75f7-80e4-8005-4a9508f00a39" data-testid="file-tray-stacked-outline" class="ionicon" rx="0" ry="0" style="fill: rgb(0, 0, 0);"><g id="shape-71e1bcd0-75f7-80e4-8005-4a9508f00a3a" data-testid="base-background" style="display: none;"><g class="fills" id="fills-71e1bcd0-75f7-80e4-8005-4a9508f00a3a"><rect width="16" height="16" x="2.0000000000002274" transform="matrix(1.000000, 0.000000, 0.000000, 1.000000, 0.000000, 0.000000)" style="fill: none;" ry="0" fill="none" rx="0" y="2"/></g></g><g id="shape-71e1bcd0-75f7-80e4-8005-4a9508f00a3b" data-testid="svg-path"><g class="fills" id="fills-71e1bcd0-75f7-80e4-8005-4a9508f00a3b"><path d="M3.500,12.500L3.500,15.500C3.502,16.327,4.173,16.998,5.000,17.000L15.000,17.000C15.827,16.998,16.498,16.327,16.500,15.500L16.500,12.500" fill="none" stroke-linejoin="round" style="fill: none;"/></g><g fill="none" stroke-linejoin="round" id="strokes-71e1bcd0-75f7-80e4-8005-4a9508f00a3b" class="strokes"><g class="stroke-shape"><path d="M3.500,12.500L3.500,15.500C3.502,16.327,4.173,16.998,5.000,17.000L15.000,17.000C15.827,16.998,16.498,16.327,16.500,15.500L16.500,12.500" style="fill: none; stroke-width: 1; stroke: rgb(0, 0, 0); stroke-opacity: 1;"/></g></g></g><g id="shape-71e1bcd0-75f7-80e4-8005-4a9508f00a3c" data-testid="svg-path"><g class="fills" id="fills-71e1bcd0-75f7-80e4-8005-4a9508f00a3c"><path d="M3.500,12.500L8.000,12.500M12.000,12.500L16.500,12.500M8.000,12.500C8.000,13.605,8.895,14.500,10.000,14.500C11.105,14.500,12.000,13.605,12.000,12.500" fill="none" stroke-linejoin="round" style="fill: none;"/></g><g fill="none" stroke-linejoin="round" id="strokes-71e1bcd0-75f7-80e4-8005-4a9508f00a3c" class="strokes"><g class="stroke-shape"><path d="M3.500,12.500L8.000,12.500M12.000,12.500L16.500,12.500M8.000,12.500C8.000,13.605,8.895,14.500,10.000,14.500C11.105,14.500,12.000,13.605,12.000,12.500" style="fill: none; stroke-width: 1; stroke: rgb(0, 0, 0); stroke-opacity: 1;"/></g></g></g><g id="shape-71e1bcd0-75f7-80e4-8005-4a9508f00a3d" data-testid="svg-path"><g class="fills" id="fills-71e1bcd0-75f7-80e4-8005-4a9508f00a3d"><path d="M14.000,3.000L6.000,3.000C5.188,3.000,4.656,3.438,4.500,4.250L3.500,8.000L3.500,11.000C3.502,11.827,4.173,12.498,5.000,12.500L15.000,12.500C15.827,12.498,16.498,11.827,16.500,11.000L16.500,8.000L15.500,4.250C15.344,3.406,14.781,3.000,14.000,3.000ZZ" fill="none" stroke-linejoin="round" style="fill: none;"/></g><g fill="none" stroke-linejoin="round" id="strokes-71e1bcd0-75f7-80e4-8005-4a9508f00a3d" class="strokes"><g class="stroke-shape"><path d="M14.000,3.000L6.000,3.000C5.188,3.000,4.656,3.438,4.500,4.250L3.500,8.000L3.500,11.000C3.502,11.827,4.173,12.498,5.000,12.500L15.000,12.500C15.827,12.498,16.498,11.827,16.500,11.000L16.500,8.000L15.500,4.250C15.344,3.406,14.781,3.000,14.000,3.000ZZ" style="fill: none; stroke-width: 1; stroke: rgb(0, 0, 0); stroke-opacity: 1;"/></g></g></g><g id="shape-71e1bcd0-75f7-80e4-8005-4a9508f00a3e" data-testid="svg-path"><g class="fills" id="fills-71e1bcd0-75f7-80e4-8005-4a9508f00a3e"><path d="M3.500,8.000L8.000,8.000M12.000,8.000L16.500,8.000M8.000,8.000C8.000,9.105,8.895,10.000,10.000,10.000C11.105,10.000,12.000,9.105,12.000,8.000" fill="none" stroke-linejoin="round" style="fill: none;"/></g><g fill="none" stroke-linejoin="round" id="strokes-71e1bcd0-75f7-80e4-8005-4a9508f00a3e" class="strokes"><g class="stroke-shape"><path d="M3.500,8.000L8.000,8.000M12.000,8.000L16.500,8.000M8.000,8.000C8.000,9.105,8.895,10.000,10.000,10.000C11.105,10.000,12.000,9.105,12.000,8.000" style="fill: none; stroke-width: 1; stroke: rgb(0, 0, 0); stroke-opacity: 1;"/></g></g></g></g></g></g></g></svg>