<svg width="20" xmlns="http://www.w3.org/2000/svg" height="20" id="screenshot-0a410dbf-9f22-8070-8005-545fad09c467" viewBox="0 0 20 20" xmlns:xlink="http://www.w3.org/1999/xlink" fill="none" version="1.1"><g id="shape-0a410dbf-9f22-8070-8005-545fad09c467" data-testid="draft-icon"><g fill="none"><g class="fills" id="fills-0a410dbf-9f22-8070-8005-545fad09c467"><rect rx="0" ry="0" x="0" y="0" width="20" height="20" transform="matrix(1.000000, 0.000000, 0.000000, 1.000000, 0.000000, 0.000000)" class="frame-background"/></g><g class="frame-children"><g id="shape-0a410dbf-9f22-8070-8005-546040b36eaf" data-testid="document-outline" class="ionicon" rx="0" ry="0" style="fill: rgb(0, 0, 0);"><g id="shape-0a410dbf-9f22-8070-8005-546040b36eb0" data-testid="base-background" style="display: none;"><g class="fills" id="fills-0a410dbf-9f22-8070-8005-546040b36eb0"><rect width="16" height="16" x="2" transform="matrix(1.000000, 0.000000, 0.000000, 1.000000, 0.000000, 0.000000)" style="fill: none;" ry="0" fill="none" rx="0" y="2"/></g></g><g id="shape-0a410dbf-9f22-8070-8005-546040b36eb1" data-testid="svg-path"><g class="fills" id="fills-0a410dbf-9f22-8070-8005-546040b36eb1"><path d="M15.000,8.914L15.000,15.000C15.000,15.828,14.328,16.500,13.500,16.500L6.500,16.500C5.672,16.500,5.000,15.828,5.000,15.000L5.000,5.000C5.000,4.172,5.672,3.500,6.500,3.500L9.586,3.500C9.851,3.500,10.105,3.605,10.293,3.793L14.707,8.207C14.895,8.395,15.000,8.649,15.000,8.914ZZ" fill="none" stroke-linejoin="round" style="fill: none;"/></g><g fill="none" stroke-linejoin="round" id="strokes-0a410dbf-9f22-8070-8005-546040b36eb1" class="strokes"><g class="stroke-shape"><path d="M15.000,8.914L15.000,15.000C15.000,15.828,14.328,16.500,13.500,16.500L6.500,16.500C5.672,16.500,5.000,15.828,5.000,15.000L5.000,5.000C5.000,4.172,5.672,3.500,6.500,3.500L9.586,3.500C9.851,3.500,10.105,3.605,10.293,3.793L14.707,8.207C14.895,8.395,15.000,8.649,15.000,8.914ZZ" style="fill: none; stroke-width: 1; stroke: rgb(0, 0, 0); stroke-opacity: 1;"/></g></g></g><g id="shape-0a410dbf-9f22-8070-8005-546040b36eb2" data-testid="svg-path"><g class="fills" id="fills-0a410dbf-9f22-8070-8005-546040b36eb2"><path d="M10.000,3.750L10.000,7.500C10.000,8.052,10.448,8.500,11.000,8.500L14.750,8.500" fill="none" stroke-linejoin="round" style="fill: none;"/></g><g fill="none" stroke-linejoin="round" id="strokes-0a410dbf-9f22-8070-8005-546040b36eb2" class="strokes"><g class="stroke-shape"><path d="M10.000,3.750L10.000,7.500C10.000,8.052,10.448,8.500,11.000,8.500L14.750,8.500" style="fill: none; stroke-width: 1; stroke: rgb(0, 0, 0); stroke-opacity: 1;"/></g></g></g></g></g></g></g></svg>