<svg width="20" xmlns="http://www.w3.org/2000/svg" height="20" id="screenshot-71e1bcd0-75f7-80e4-8005-4a7911b40548" viewBox="0 0 20 20" xmlns:xlink="http://www.w3.org/1999/xlink" fill="none" version="1.1"><g id="shape-71e1bcd0-75f7-80e4-8005-4a7911b40548" data-testid="flame-icon"><g fill="none"><g class="fills" id="fills-71e1bcd0-75f7-80e4-8005-4a7911b40548"><rect rx="0" ry="0" x="0" y="0" width="20" height="20" transform="matrix(1.000000, 0.000000, 0.000000, 1.000000, 0.000000, 0.000000)" class="frame-background"/></g><g class="frame-children"><g id="shape-71e1bcd0-75f7-80e4-8005-4a78d96daf9e" data-testid="flame-outline" class="ionicon" rx="0" ry="0" style="fill: rgb(0, 0, 0);"><g id="shape-71e1bcd0-75f7-80e4-8005-4a78d96dc8fd" data-testid="base-background" style="display: none;"><g class="fills" id="fills-71e1bcd0-75f7-80e4-8005-4a78d96dc8fd"><rect width="20" height="20" x="0" transform="matrix(1.000000, 0.000000, 0.000000, 1.000000, 0.000000, 0.000000)" style="fill: none;" ry="0" fill="none" rx="0" y="0"/></g></g><g id="shape-71e1bcd0-75f7-80e4-8005-4a78d96dc8fe" data-testid="svg-path"><g class="fills" id="fills-71e1bcd0-75f7-80e4-8005-4a78d96dc8fe"><path d="M4.375,12.500C4.375,8.867,9.219,6.055,8.125,1.875C10.703,1.875,15.625,5.625,15.625,12.500C15.625,15.607,13.107,18.125,10.000,18.125C6.893,18.125,4.375,15.607,4.375,12.500ZZ" fill="none" stroke-linejoin="round" style="fill: none;"/></g><g fill="none" stroke-linejoin="round" id="strokes-71e1bcd0-75f7-80e4-8005-4a78d96dc8fe" class="strokes"><g class="stroke-shape"><path d="M4.375,12.500C4.375,8.867,9.219,6.055,8.125,1.875C10.703,1.875,15.625,5.625,15.625,12.500C15.625,15.607,13.107,18.125,10.000,18.125C6.893,18.125,4.375,15.607,4.375,12.500ZZ" style="fill: none; stroke-width: 1; stroke: rgb(46, 46, 56); stroke-opacity: 1;"/></g></g></g><g id="shape-71e1bcd0-75f7-80e4-8005-4a78d96dc8ff" data-testid="svg-path"><g class="fills" id="fills-71e1bcd0-75f7-80e4-8005-4a78d96dc8ff"><path d="M12.500,14.375C12.500,16.629,11.250,17.500,10.000,17.500C8.750,17.500,7.500,16.629,7.500,14.375C7.500,12.121,9.063,11.016,8.750,9.375C10.391,9.375,12.500,12.121,12.500,14.375ZZ" fill="none" stroke-linejoin="round" style="fill: none;"/></g><g fill="none" stroke-linejoin="round" id="strokes-71e1bcd0-75f7-80e4-8005-4a78d96dc8ff" class="strokes"><g class="stroke-shape"><path d="M12.500,14.375C12.500,16.629,11.250,17.500,10.000,17.500C8.750,17.500,7.500,16.629,7.500,14.375C7.500,12.121,9.063,11.016,8.750,9.375C10.391,9.375,12.500,12.121,12.500,14.375ZZ" style="fill: none; stroke-width: 1; stroke: rgb(46, 46, 56); stroke-opacity: 1;"/></g></g></g></g></g></g></g></svg>