<svg width="20" xmlns="http://www.w3.org/2000/svg" height="20" id="screenshot-71e1bcd0-75f7-80e4-8005-4a990be72807" viewBox="0 0 20 20" xmlns:xlink="http://www.w3.org/1999/xlink" fill="none" version="1.1"><g id="shape-71e1bcd0-75f7-80e4-8005-4a990be72807" data-testid="inbox-icon"><g fill="none"><g class="fills" id="fills-71e1bcd0-75f7-80e4-8005-4a990be72807"><rect rx="0" ry="0" x="0" y="0" width="20" height="20" transform="matrix(1.000000, 0.000000, 0.000000, 1.000000, 0.000000, 0.000000)" class="frame-background"/></g><g class="frame-children"><g id="shape-71e1bcd0-75f7-80e4-8005-4a9937ab61e3" data-testid="file-tray-outline" class="ionicon" rx="0" ry="0" style="fill: rgb(0, 0, 0);"><g id="shape-71e1bcd0-75f7-80e4-8005-4a9937ab61e4" data-testid="base-background" style="display: none;"><g class="fills" id="fills-71e1bcd0-75f7-80e4-8005-4a9937ab61e4"><rect width="16" height="16" x="2" transform="matrix(1.000000, 0.000000, 0.000000, 1.000000, 0.000000, 0.000000)" style="fill: none;" ry="0" fill="none" rx="0" y="2"/></g></g><g id="shape-71e1bcd0-75f7-80e4-8005-4a9937ab61e5" data-testid="svg-path"><g class="fills" id="fills-71e1bcd0-75f7-80e4-8005-4a9937ab61e5"><path d="M14.000,4.500L6.000,4.500C5.188,4.500,4.656,4.938,4.500,5.750L3.500,10.500L3.500,14.000C3.502,14.827,4.173,15.498,5.000,15.500L15.000,15.500C15.827,15.498,16.498,14.827,16.500,14.000L16.500,10.500L15.500,5.750C15.344,4.906,14.781,4.500,14.000,4.500ZZ" fill="none" stroke-linejoin="round" style="fill: none;"/></g><g fill="none" stroke-linejoin="round" id="strokes-71e1bcd0-75f7-80e4-8005-4a9937ab61e5" class="strokes"><g class="stroke-shape"><path d="M14.000,4.500L6.000,4.500C5.188,4.500,4.656,4.938,4.500,5.750L3.500,10.500L3.500,14.000C3.502,14.827,4.173,15.498,5.000,15.500L15.000,15.500C15.827,15.498,16.498,14.827,16.500,14.000L16.500,10.500L15.500,5.750C15.344,4.906,14.781,4.500,14.000,4.500ZZ" style="fill: none; stroke-width: 1; stroke: rgb(0, 0, 0); stroke-opacity: 1;"/></g></g></g><g id="shape-71e1bcd0-75f7-80e4-8005-4a9937ab61e6" data-testid="svg-path"><g class="fills" id="fills-71e1bcd0-75f7-80e4-8005-4a9937ab61e6"><path d="M3.500,10.500L8.000,10.500M12.000,10.500L16.500,10.500M8.000,10.500C8.000,11.605,8.895,12.500,10.000,12.500C11.105,12.500,12.000,11.605,12.000,10.500" fill="none" stroke-linejoin="round" style="fill: none;"/></g><g fill="none" stroke-linejoin="round" id="strokes-71e1bcd0-75f7-80e4-8005-4a9937ab61e6" class="strokes"><g class="stroke-shape"><path d="M3.500,10.500L8.000,10.500M12.000,10.500L16.500,10.500M8.000,10.500C8.000,11.605,8.895,12.500,10.000,12.500C11.105,12.500,12.000,11.605,12.000,10.500" style="fill: none; stroke-width: 1; stroke: rgb(0, 0, 0); stroke-opacity: 1;"/></g></g></g></g></g></g></g></svg>