<svg width="28" xmlns="http://www.w3.org/2000/svg" height="26" id="screenshot-71e1bcd0-75f7-80e4-8005-4a3330c09287" viewBox="0 0 28 26" xmlns:xlink="http://www.w3.org/1999/xlink" fill="none" version="1.1"><g id="shape-71e1bcd0-75f7-80e4-8005-4a3330c09287" data-testid="menu-24px"><defs><clipPath id="frame-clip-71e1bcd0-75f7-80e4-8005-4a3330c09287-render-1" class="frame-clip frame-clip-def"><rect rx="4" ry="4" x="0" y="0" width="28" height="26" transform="matrix(1.000000, 0.000000, 0.000000, 1.000000, 0.000000, 0.000000)"/></clipPath></defs><g clip-path="url(#frame-clip-71e1bcd0-75f7-80e4-8005-4a3330c09287-render-1)" fill="none"><g class="fills" id="fills-71e1bcd0-75f7-80e4-8005-4a3330c09287"><rect width="28" height="26" class="frame-background" x="0" transform="matrix(1.000000, 0.000000, 0.000000, 1.000000, 0.000000, 0.000000)" style="fill: rgb(200, 200, 216); fill-opacity: 0;" ry="4" rx="4" y="0"/></g><g class="frame-children"><g id="shape-71e1bcd0-75f7-80e4-8005-4a3330c09289" data-testid="menu-24px"><g class="fills" id="fills-71e1bcd0-75f7-80e4-8005-4a3330c09289"><path d="M15.000,22.000L13.400,22.000L8.000,22.000C5.792,22.000,4.000,20.208,4.000,18.000L4.000,8.000C4.000,5.792,5.792,4.000,8.000,4.000L13.400,4.000L15.000,4.000L20.000,4.000C22.208,4.000,24.000,5.792,24.000,8.000L24.000,18.000C24.000,20.208,22.208,22.000,20.000,22.000L15.000,22.000ZM13.400,5.500L7.667,5.500C6.563,5.500,5.667,6.396,5.667,7.500L5.667,18.500C5.667,19.604,6.563,20.500,7.667,20.500L13.400,20.500L13.400,5.500ZM15.000,20.500L20.333,20.500C21.437,20.500,22.333,19.604,22.333,18.500L22.333,7.500C22.333,6.396,21.437,5.500,20.333,5.500L15.000,5.500L15.000,20.500ZM7.000,9.250C7.000,8.836,7.336,8.500,7.750,8.500L11.050,8.500C11.464,8.500,11.800,8.836,11.800,9.250L11.800,9.250C11.800,9.664,11.464,10.000,11.050,10.000L7.750,10.000C7.336,10.000,7.000,9.664,7.000,9.250ZL7.000,9.250ZM7.000,12.250C7.000,11.836,7.336,11.500,7.750,11.500L11.050,11.500C11.464,11.500,11.800,11.836,11.800,12.250L11.800,12.250C11.800,12.664,11.464,13.000,11.050,13.000L7.750,13.000C7.336,13.000,7.000,12.664,7.000,12.250ZL7.000,12.250ZM7.000,15.250C7.000,14.836,7.336,14.500,7.750,14.500L11.050,14.500C11.464,14.500,11.800,14.836,11.800,15.250L11.800,15.250C11.800,15.664,11.464,16.000,11.050,16.000L7.750,16.000C7.336,16.000,7.000,15.664,7.000,15.250ZL7.000,15.250Z" style="fill: rgb(46, 46, 56); fill-opacity: 1;"/></g></g></g></g></g></svg>