<svg width="20" xmlns="http://www.w3.org/2000/svg" height="20" id="screenshot-71e1bcd0-75f7-80e4-8005-4a3d76e08942" viewBox="0 0 20 20" xmlns:xlink="http://www.w3.org/1999/xlink" fill="none" version="1.1"><g id="shape-71e1bcd0-75f7-80e4-8005-4a3d76e08942" data-testid="more-icon"><g fill="none"><g class="fills" id="fills-71e1bcd0-75f7-80e4-8005-4a3d76e08942"><rect rx="0" ry="0" x="0" y="0" width="20" height="20.000000000000057" transform="matrix(1.000000, 0.000000, 0.000000, 1.000000, 0.000000, 0.000000)" class="frame-background"/></g><g class="frame-children"><g id="shape-71e1bcd0-75f7-80e4-8005-4a3d89f093fd" data-testid="ellipsis-horizontal-outline" class="ionicon" rx="0" ry="0" style="fill: rgb(0, 0, 0);"><g id="shape-71e1bcd0-75f7-80e4-8005-4a3d89f093fe" data-testid="base-background" style="display: none;"><g class="fills" id="fills-71e1bcd0-75f7-80e4-8005-4a3d89f093fe"><rect width="20" height="20" x="0" transform="matrix(1.000000, 0.000000, 0.000000, 1.000000, 0.000000, 0.000000)" style="fill: none;" ry="0" fill="none" rx="0" y="0"/></g></g><g id="shape-71e1bcd0-75f7-80e4-8005-4a3d89f093ff" data-testid="svg-circle"><g class="fills" id="fills-71e1bcd0-75f7-80e4-8005-4a3d89f093ff"><ellipse cx="10" cy="10" rx="1.25" ry="1.25" transform="matrix(1.000000, 0.000000, 0.000000, 1.000000, 0.000000, 0.000000)" fill="none" stroke-miterlimit="10" style="fill: none;"/></g><g fill="none" stroke-miterlimit="10" id="strokes-71e1bcd0-75f7-80e4-8005-4a3d89f093ff" class="strokes"><g class="stroke-shape"><ellipse cx="10" cy="10" rx="1.25" ry="1.25" transform="matrix(1.000000, 0.000000, 0.000000, 1.000000, 0.000000, 0.000000)" style="fill: none; stroke-width: 1; stroke: rgb(46, 46, 56); stroke-opacity: 1;"/></g></g></g><g id="shape-71e1bcd0-75f7-80e4-8005-4a3d89f09400" data-testid="svg-circle"><g class="fills" id="fills-71e1bcd0-75f7-80e4-8005-4a3d89f09400"><ellipse cx="16.25" cy="10" rx="1.25" ry="1.25" transform="matrix(1.000000, 0.000000, 0.000000, 1.000000, 0.000000, 0.000000)" fill="none" stroke-miterlimit="10" style="fill: none;"/></g><g fill="none" stroke-miterlimit="10" id="strokes-71e1bcd0-75f7-80e4-8005-4a3d89f09400" class="strokes"><g class="stroke-shape"><ellipse cx="16.25" cy="10" rx="1.25" ry="1.25" transform="matrix(1.000000, 0.000000, 0.000000, 1.000000, 0.000000, 0.000000)" style="fill: none; stroke-width: 1; stroke: rgb(46, 46, 56); stroke-opacity: 1;"/></g></g></g><g id="shape-71e1bcd0-75f7-80e4-8005-4a3d89f09401" data-testid="svg-circle"><g class="fills" id="fills-71e1bcd0-75f7-80e4-8005-4a3d89f09401"><ellipse cx="3.75" cy="10" rx="1.25" ry="1.25" transform="matrix(1.000000, 0.000000, 0.000000, 1.000000, 0.000000, 0.000000)" fill="none" stroke-miterlimit="10" style="fill: none;"/></g><g fill="none" stroke-miterlimit="10" id="strokes-71e1bcd0-75f7-80e4-8005-4a3d89f09401" class="strokes"><g class="stroke-shape"><ellipse cx="3.75" cy="10" rx="1.25" ry="1.25" transform="matrix(1.000000, 0.000000, 0.000000, 1.000000, 0.000000, 0.000000)" style="fill: none; stroke-width: 1; stroke: rgb(46, 46, 56); stroke-opacity: 1;"/></g></g></g></g></g></g></g></svg>