<svg width="20" xmlns="http://www.w3.org/2000/svg" height="20" id="screenshot-371f8973-458c-803a-8005-54f02b587411" viewBox="0 0 20 20" xmlns:xlink="http://www.w3.org/1999/xlink" fill="none" version="1.1"><g id="shape-371f8973-458c-803a-8005-54f02b587411" data-testid="reply-icon"><g fill="none"><g class="fills" id="fills-371f8973-458c-803a-8005-54f02b587411"><rect rx="0" ry="0" x="0" y="0" width="20" height="20" transform="matrix(1.000000, 0.000000, 0.000000, 1.000000, 0.000000, 0.000000)" class="frame-background"/></g><g class="frame-children"><g id="shape-371f8973-458c-803a-8005-54f02b587412" data-testid="create-outline" class="ionicon" rx="0" ry="0" style="fill: rgb(0, 0, 0);"><g id="shape-371f8973-458c-803a-8005-54f02b587413" data-testid="base-background" style="display: none;"><g class="fills" id="fills-371f8973-458c-803a-8005-54f02b587413"><rect width="16" height="16" x="2" transform="matrix(-1.000000, 0.000000, 0.000000, -1.000000, 20.000000, 20.000000)" style="fill: none;" ry="0" fill="none" rx="0" y="2"/></g></g><g id="shape-371f8973-458c-803a-8005-54f02b587414" data-testid="svg-path"><g class="fills" id="fills-371f8973-458c-803a-8005-54f02b587414"><path d="M6.000,11.000L2.500,7.500L9.683,7.500C16.488,7.500,18.000,12.000,18.000,15.000M2.500,7.500L6.000,4.000" fill="none" stroke-linejoin="round" style="fill: none;"/></g><g fill="none" stroke-linejoin="round" id="strokes-371f8973-458c-803a-8005-54f02b587414" class="strokes"><g class="stroke-shape"><path d="M6.000,11.000L2.500,7.500L9.683,7.500C16.488,7.500,18.000,12.000,18.000,15.000M2.500,7.500L6.000,4.000" style="fill: none; stroke-width: 1; stroke: rgb(0, 0, 0); stroke-opacity: 1; stroke-linecap: round;"/></g></g></g></g></g></g></g></svg>