<svg xmlns="http://www.w3.org/2000/svg" xmlns:xlink="http://www.w3.org/1999/xlink" width="20" height="20" id="screenshot-01570f0f-f7e8-8088-8005-4cce2e0748b9" viewBox="0 0 20 20" fill="none" version="1.1"><g id="shape-01570f0f-f7e8-8088-8005-4cce2e0748b9" data-testid="search-icon"><g fill="none"><g class="fills" id="fills-01570f0f-f7e8-8088-8005-4cce2e0748b9"><rect rx="0" ry="0" x="0" y="0" width="20" height="20" transform="matrix(1.000000, 0.000000, 0.000000, 1.000000, 0.000000, 0.000000)" class="frame-background"/></g><g class="frame-children"><g id="shape-01570f0f-f7e8-8088-8005-4cce406fd292" data-testid="search-outline" class="ionicon" rx="0" ry="0" style="fill: rgb(0, 0, 0);"><g id="shape-01570f0f-f7e8-8088-8005-4cce406fd293" data-testid="base-background" style="display: none;"><g class="fills" id="fills-01570f0f-f7e8-8088-8005-4cce406fd293"><rect width="16" height="16" x="2" transform="matrix(1.000000, 0.000000, 0.000000, 1.000000, 0.000000, 0.000000)" style="fill: none;" ry="0" fill="none" rx="0" y="2"/></g></g><g id="shape-01570f0f-f7e8-8088-8005-4cce406fd294" data-testid="svg-path"><g class="fills" id="fills-01570f0f-f7e8-8088-8005-4cce406fd294"><path d="M8.909,4.000C6.198,4.000,4.000,6.198,4.000,8.909C4.000,11.620,6.198,13.818,8.909,13.818C11.620,13.818,13.818,11.620,13.818,8.909C13.818,6.198,11.620,4.000,8.909,4.000ZZ" fill="none" stroke-miterlimit="10" style="fill: none;"/></g><g fill="none" stroke-miterlimit="10" id="strokes-01570f0f-f7e8-8088-8005-4cce406fd294" class="strokes"><g class="stroke-shape"><path d="M8.909,4.000C6.198,4.000,4.000,6.198,4.000,8.909C4.000,11.620,6.198,13.818,8.909,13.818C11.620,13.818,13.818,11.620,13.818,8.909C13.818,6.198,11.620,4.000,8.909,4.000ZZ" style="fill: none; stroke-width: 1; stroke: rgb(0, 0, 0); stroke-opacity: 1;"/></g></g></g><g id="shape-01570f0f-f7e8-8088-8005-4cce406fd295" data-testid="svg-path"><g class="fills" id="fills-01570f0f-f7e8-8088-8005-4cce406fd295"><path d="M12.572,12.572L16.000,16.000" fill="none" stroke-miterlimit="10" style="fill: none;"/></g><g fill="none" stroke-miterlimit="10" id="strokes-01570f0f-f7e8-8088-8005-4cce406fd295" class="strokes"><g class="stroke-shape"><path d="M12.572,12.572L16.000,16.000" style="fill: none; stroke-width: 1; stroke: rgb(0, 0, 0); stroke-opacity: 1;"/></g></g></g></g></g></g></g></svg>