<svg width="20" xmlns="http://www.w3.org/2000/svg" height="20" id="screenshot-a6b223a3-6f0f-8038-8005-5594ec4fb851" viewBox="0 0 20 20" xmlns:xlink="http://www.w3.org/1999/xlink" fill="none" version="1.1"><g id="shape-a6b223a3-6f0f-8038-8005-5594ec4fb851" data-testid="back-icon"><g fill="none"><g class="fills" id="fills-a6b223a3-6f0f-8038-8005-5594ec4fb851"><rect rx="0" ry="0" x="0" y="0" width="20" height="20" transform="matrix(1.000000, 0.000000, 0.000000, 1.000000, 0.000000, 0.000000)" class="frame-background"/></g><g class="frame-children"><g id="shape-a6b223a3-6f0f-8038-8005-5594f8d94879" data-testid="Back"><g fill="none"><g class="fills" id="fills-a6b223a3-6f0f-8038-8005-5594f8d94879"><rect rx="0" ry="0" x="0" y="0" width="20" height="20" transform="matrix(1.000000, 0.000000, 0.000000, 1.000000, 0.000000, 0.000000)" class="frame-background"/></g><g class="frame-children"><g id="shape-a6b223a3-6f0f-8038-8005-5594f8d9487a" data-testid="create-outline" class="ionicon" rx="0" ry="0" style="fill: rgb(0, 0, 0);"><g id="shape-a6b223a3-6f0f-8038-8005-5594f8d9487b" data-testid="base-background" style="display: none;"><g class="fills" id="fills-a6b223a3-6f0f-8038-8005-5594f8d9487b"><rect width="16" height="15.999999999999886" x="2" transform="matrix(-1.000000, 0.000000, 0.000000, -1.000000, 20.000000, 24.000000)" style="fill: none;" ry="0" fill="none" rx="0" y="4.000000000000057"/></g></g><g id="shape-a6b223a3-6f0f-8038-8005-5594f8d9487c" data-testid="svg-path"><g class="fills" id="fills-a6b223a3-6f0f-8038-8005-5594f8d9487c"><path d="M8.306,14.038L4.919,10.000L11.871,10.000L18.500,10.000M4.919,10.000L8.306,5.962M2.500,2.500L2.500,17.500" fill="none" stroke-linejoin="round" style="fill: none;"/></g><g fill="none" stroke-linejoin="round" id="strokes-a6b223a3-6f0f-8038-8005-5594f8d9487c" class="strokes"><g class="stroke-shape"><path d="M8.306,14.038L4.919,10.000L11.871,10.000L18.500,10.000M4.919,10.000L8.306,5.962M2.500,2.500L2.500,17.500" style="fill: none; stroke-width: 1; stroke: rgb(0, 0, 0); stroke-opacity: 1; stroke-linecap: round;"/></g></g></g></g></g></g></g></g></g></g></svg>