<svg width="20" xmlns="http://www.w3.org/2000/svg" height="20" id="screenshot-0a410dbf-9f22-8070-8005-54601d6bde92" viewBox="0 0 20 20" xmlns:xlink="http://www.w3.org/1999/xlink" fill="none" version="1.1"><g id="shape-0a410dbf-9f22-8070-8005-54601d6bde92" data-testid="compose-icon"><g fill="none"><g class="fills" id="fills-0a410dbf-9f22-8070-8005-54601d6bde92"><rect rx="0" ry="0" x="0" y="0" width="20" height="20" transform="matrix(1.000000, 0.000000, 0.000000, 1.000000, 0.000000, 0.000000)" class="frame-background"/></g><g class="frame-children"><g id="shape-0a410dbf-9f22-8070-8005-5460259d5ea9" data-testid="create-outline" class="ionicon" rx="0" ry="0" style="fill: rgb(0, 0, 0);"><g id="shape-0a410dbf-9f22-8070-8005-5460259d5eaa" data-testid="base-background" style="display: none;"><g class="fills" id="fills-0a410dbf-9f22-8070-8005-5460259d5eaa"><rect width="16" height="16" x="2" transform="matrix(1.000000, 0.000000, 0.000000, 1.000000, 0.000000, 0.000000)" style="fill: none;" ry="0" fill="none" rx="0" y="2"/></g></g><g id="shape-0a410dbf-9f22-8070-8005-5460259d5eab" data-testid="svg-path"><g class="fills" id="fills-0a410dbf-9f22-8070-8005-5460259d5eab"><path d="M14.000,9.000L14.000,14.750C14.000,15.440,13.440,16.000,12.750,16.000L5.250,16.000C4.560,16.000,4.000,15.440,4.000,14.750L4.000,7.250C4.000,6.560,4.560,6.000,5.250,6.000L10.484,6.000" fill="none" stroke-linejoin="round" style="fill: none;"/></g><g fill="none" stroke-linejoin="round" id="strokes-0a410dbf-9f22-8070-8005-5460259d5eab" class="strokes"><g class="stroke-shape"><path d="M14.000,9.000L14.000,14.750C14.000,15.440,13.440,16.000,12.750,16.000L5.250,16.000C4.560,16.000,4.000,15.440,4.000,14.750L4.000,7.250C4.000,6.560,4.560,6.000,5.250,6.000L10.484,6.000" style="fill: none; stroke-width: 1; stroke: rgb(0, 0, 0); stroke-opacity: 1;"/></g></g></g><g id="shape-0a410dbf-9f22-8070-8005-5460259d5eac" data-testid="svg-path"><g class="fills" id="fills-0a410dbf-9f22-8070-8005-5460259d5eac"><path d="M16.373,3.664C16.281,3.563,16.151,3.503,16.014,3.500C15.877,3.497,15.745,3.550,15.648,3.647L15.261,4.031C15.163,4.129,15.163,4.287,15.261,4.385L15.615,4.738C15.662,4.786,15.726,4.812,15.793,4.812C15.859,4.812,15.923,4.786,15.970,4.738L16.347,4.363C16.537,4.173,16.555,3.863,16.373,3.664ZZM14.479,4.813L8.838,10.444C8.804,10.478,8.779,10.520,8.766,10.567L8.505,11.344C8.492,11.387,8.504,11.433,8.536,11.465C8.567,11.497,8.614,11.508,8.657,11.496L9.433,11.235C9.480,11.222,9.522,11.197,9.556,11.163L15.188,5.521C15.296,5.411,15.296,5.235,15.188,5.125L14.877,4.813C14.767,4.703,14.589,4.703,14.479,4.813ZZ"/></g></g></g></g></g></g></svg>