<svg width="20" xmlns="http://www.w3.org/2000/svg" height="20" id="screenshot-371f8973-458c-803a-8005-54eefd4c3bba" viewBox="0 0 20 20" xmlns:xlink="http://www.w3.org/1999/xlink" fill="none" version="1.1"><g id="shape-371f8973-458c-803a-8005-54eefd4c3bba" data-testid="forward-icon"><g fill="none"><g class="fills" id="fills-371f8973-458c-803a-8005-54eefd4c3bba"><rect rx="0" ry="0" x="0" y="0" width="20" height="20" transform="matrix(1.000000, 0.000000, 0.000000, 1.000000, 0.000000, 0.000000)" class="frame-background"/></g><g class="frame-children"><g id="shape-371f8973-458c-803a-8005-54eefd4c3bbb" data-testid="create-outline" class="ionicon" rx="0" ry="0" style="fill: rgb(0, 0, 0);"><g id="shape-371f8973-458c-803a-8005-54eefd4c3bbc" data-testid="base-background" style="display: none;"><g class="fills" id="fills-371f8973-458c-803a-8005-54eefd4c3bbc"><rect width="16" height="16" x="2" transform="matrix(1.000000, 0.000000, 0.000000, -1.000000, 0.000000, 20.000000)" style="fill: none;" ry="0" fill="none" rx="0" y="2"/></g></g><g id="shape-371f8973-458c-803a-8005-54eefd4c48a9" data-testid="svg-path"><g class="fills" id="fills-371f8973-458c-803a-8005-54eefd4c48a9"><path d="M14.000,11.000L17.500,7.500L10.317,7.500C3.512,7.500,2.000,12.000,2.000,15.000M17.500,7.500L14.000,4.000" fill="none" stroke-linejoin="round" style="fill: none;"/></g><g fill="none" stroke-linejoin="round" id="strokes-371f8973-458c-803a-8005-54eefd4c48a9" class="strokes"><g class="stroke-shape"><path d="M14.000,11.000L17.500,7.500L10.317,7.500C3.512,7.500,2.000,12.000,2.000,15.000M17.500,7.500L14.000,4.000" style="fill: none; stroke-width: 1; stroke: rgb(0, 0, 0); stroke-opacity: 1; stroke-linecap: round;"/></g></g></g></g></g></g></g></svg>