<svg xmlns="http://www.w3.org/2000/svg" xmlns:xlink="http://www.w3.org/1999/xlink" width="22.823" height="22.823" id="screenshot-e508915a-3005-80be-8005-4958dd821980" viewBox="-0.911 -0 22.823 22.823" fill="none" version="1.1"><g id="shape-e508915a-3005-80be-8005-4958dd821980" data-testid="pinned-icon"><g fill="none"><g class="fills" id="fills-e508915a-3005-80be-8005-4958dd821980"><rect rx="0" ry="0" x="0" y="0" width="21" height="20.000000000000114" transform="matrix(1.000000, 0.000000, 0.000000, 1.000000, 0.000000, 0.000000)" class="frame-background"/></g><g class="frame-children"><g id="shape-e508915a-3005-80be-8005-4958dd821981" data-testid="Pin" rx="0" ry="0"><g id="shape-e508915a-3005-80be-8005-4958dd821982" data-testid="Group" rx="0" ry="0"><g id="shape-e508915a-3005-80be-8005-4958dd821983" data-testid="Rectangle"><g class="fills" id="fills-e508915a-3005-80be-8005-4958dd821983"><path d="M9.929,13.768L3.368,18.526L8.156,12.005L9.929,13.768Z" style="fill: rgb(200, 200, 216); fill-opacity: 1;"/></g></g><g id="shape-e508915a-3005-80be-8005-4958dd821984" data-testid="Exclude"><g class="fills" id="fills-e508915a-3005-80be-8005-4958dd821984"><path d="M11.318,6.725C12.000,6.043,13.496,4.526,13.496,4.526C13.496,4.526,13.739,5.646,15.146,7.053C16.195,8.102,17.357,8.533,17.357,8.533C17.357,8.533,16.115,9.744,15.224,10.634C15.224,10.634,13.696,12.151,11.671,10.014C9.901,8.145,11.318,6.725,11.318,6.725Z" style="fill: rgb(46, 46, 56); fill-opacity: 1;"/></g></g><g id="shape-e508915a-3005-80be-8005-4958dd821985" data-testid="Exclude"><g class="fills" id="fills-e508915a-3005-80be-8005-4958dd821985"><path d="M11.336,6.740C10.982,6.387,8.167,5.997,7.298,7.242C5.525,11.151,11.145,16.637,14.723,14.667C15.844,13.732,15.579,10.983,15.225,10.629C15.225,10.629,13.687,12.144,11.692,10.030C9.922,8.155,11.336,6.740,11.336,6.740Z" style="fill: rgb(74, 74, 81); fill-opacity: 1;"/></g></g><g id="shape-e508915a-3005-80be-8005-4958dd821986" data-testid="Ellipse"><g class="fills" id="fills-e508915a-3005-80be-8005-4958dd821986"><path d="M17.717,4.377C19.234,5.894,19.878,7.713,19.155,8.437C18.431,9.160,16.612,8.516,15.094,6.999C13.577,5.482,12.933,3.662,13.657,2.939C14.380,2.215,16.200,2.859,17.717,4.377Z" style="fill: rgb(96, 96, 106); fill-opacity: 1;"/></g></g></g></g></g></g></g></svg>