<svg width="20" xmlns="http://www.w3.org/2000/svg" height="20" id="screenshot-71e1bcd0-75f7-80e4-8005-4a37684a6f03" viewBox="0 0 20 20" xmlns:xlink="http://www.w3.org/1999/xlink" fill="none" version="1.1"><g id="shape-71e1bcd0-75f7-80e4-8005-4a37684a6f03" data-testid="trash-icon"><g fill="none"><g class="fills" id="fills-71e1bcd0-75f7-80e4-8005-4a37684a6f03"><rect rx="0" ry="0" x="0" y="0" width="20" height="20.000000000000057" transform="matrix(1.000000, 0.000000, 0.000000, 1.000000, 0.000000, 0.000000)" class="frame-background"/></g><g class="frame-children"><g id="shape-71e1bcd0-75f7-80e4-8005-4a3777dd3874" data-testid="trash-outline" class="ionicon" rx="0" ry="0" style="fill: rgb(0, 0, 0);"><g id="shape-71e1bcd0-75f7-80e4-8005-4a3777dd3875" data-testid="base-background" style="display: none;"><g class="fills" id="fills-71e1bcd0-75f7-80e4-8005-4a3777dd3875"><rect width="18" height="18" x="1.5" transform="matrix(1.000000, 0.000000, 0.000000, 1.000000, 0.000000, 0.000000)" style="fill: none;" ry="0" fill="none" rx="0" y="1"/></g></g><g id="shape-71e1bcd0-75f7-80e4-8005-4a3777dd3876" data-testid="svg-path"><g class="fills" id="fills-71e1bcd0-75f7-80e4-8005-4a3777dd3876"><path d="M5.438,4.938L6.141,16.188C6.174,16.838,6.647,17.313,7.266,17.313L13.734,17.313C14.356,17.313,14.820,16.838,14.859,16.188L15.563,4.938" fill="none" stroke-linejoin="round" style="fill: none;"/></g><g fill="none" stroke-linejoin="round" id="strokes-71e1bcd0-75f7-80e4-8005-4a3777dd3876" class="strokes"><g class="stroke-shape"><path d="M5.438,4.938L6.141,16.188C6.174,16.838,6.647,17.313,7.266,17.313L13.734,17.313C14.356,17.313,14.820,16.838,14.859,16.188L15.563,4.938" style="fill: none; stroke-width: 1; stroke: rgb(46, 46, 56); stroke-opacity: 1;"/></g></g></g><g id="shape-71e1bcd0-75f7-80e4-8005-4a3777dd3877" data-testid="svg-path"><g class="fills" id="fills-71e1bcd0-75f7-80e4-8005-4a3777dd3877"><path d="M4.313,4.938L16.688,4.938" stroke-miterlimit="10"/></g><g stroke-miterlimit="10" id="strokes-71e1bcd0-75f7-80e4-8005-4a3777dd3877" class="strokes"><g class="stroke-shape"><path d="M4.313,4.938L16.688,4.938" style="fill: none; stroke-width: 1; stroke: rgb(46, 46, 56); stroke-opacity: 1;"/></g></g></g><g id="shape-71e1bcd0-75f7-80e4-8005-4a3777dd3878" data-testid="svg-path"><g class="fills" id="fills-71e1bcd0-75f7-80e4-8005-4a3777dd3878"><path d="M8.250,4.938L8.250,3.531L8.250,3.531C8.249,3.307,8.338,3.092,8.496,2.934C8.655,2.776,8.870,2.687,9.094,2.688L11.906,2.688C12.130,2.687,12.345,2.776,12.504,2.934C12.662,3.092,12.751,3.307,12.750,3.531L12.750,3.531L12.750,4.938M10.500,7.188L10.500,15.063M7.969,7.188L8.250,15.063M13.031,7.188L12.750,15.063" fill="none" stroke-linejoin="round" style="fill: none;"/></g><g fill="none" stroke-linejoin="round" id="strokes-71e1bcd0-75f7-80e4-8005-4a3777dd3878" class="strokes"><g class="stroke-shape"><path d="M8.250,4.938L8.250,3.531L8.250,3.531C8.249,3.307,8.338,3.092,8.496,2.934C8.655,2.776,8.870,2.687,9.094,2.688L11.906,2.688C12.130,2.687,12.345,2.776,12.504,2.934C12.662,3.092,12.751,3.307,12.750,3.531L12.750,3.531L12.750,4.938M10.500,7.188L10.500,15.063M7.969,7.188L8.250,15.063M13.031,7.188L12.750,15.063" style="fill: none; stroke-width: 1; stroke: rgb(46, 46, 56); stroke-opacity: 1;"/></g></g></g></g></g></g></g></svg>